<svg id="buy" xmlns="http://www.w3.org/2000/svg" viewBox="0 0 180 180"><title>buy</title><path d="M139.57,105.25c0.07,0.92.1,1.92,0.1,2.86A39.8,39.8,0,0,1,99.74,147.9c-2.89,0-5.71-.9-8.42-0.9h0a2.3,2.3,0,0,1-1.24-.55,39.78,39.78,0,0,1-30.26-38.6,38.89,38.89,0,0,1,.59-6.78,6.19,6.19,0,0,1-2.28-4.8A6.28,6.28,0,0,1,64.09,90c0.36-.71.73-1.39,1.13-2.07A3.33,3.33,0,0,1,65.76,82,17.78,17.78,0,0,1,98.22,68.09c0.42,0,.83,0,1.26,0h0.23a18.3,18.3,0,0,1,2,.1H101v0h0.91s0.4-.07.4-0.11a43.39,43.39,0,0,1,16.14,4.7,11.76,11.76,0,0,1,21.16,6.95,11.55,11.55,0,0,1-2.73,7.51,11.65,11.65,0,0,1,1.83,12.12c0.19,0.84.35,1.69,0.48,2.56l0.25,0a1.67,1.67,0,0,1,1.67,1.67A1.73,1.73,0,0,1,139.57,105.25Z" transform="translate(-9.22 -8.67)"/><path d="M99.22,188.67a90,90,0,1,1,90-90A90.1,90.1,0,0,1,99.22,188.67Zm0-172.79A82.79,82.79,0,1,0,182,98.67,82.89,82.89,0,0,0,99.22,15.87Z" transform="translate(-9.22 -8.67)"/></svg>