<svg id="fb" xmlns="http://www.w3.org/2000/svg" viewBox="0 0 180.18 180.18"><title>fb</title><g id="Facebook"><path d="M98.6,189.5a90.09,90.09,0,1,1,90.09-90.09A90.19,90.19,0,0,1,98.6,189.5Zm0-173.33a83.24,83.24,0,1,0,83.24,83.24A83.33,83.33,0,0,0,98.6,16.17Z" transform="translate(-8.52 -9.32)"/><path id="Facebook-2" data-name="Facebook" d="M139,135.08c0,2.55-1.23,5.92-3.79,5.92H114V108h10.75l1.63-12H114V86.53c0-3.66,1-6.16,6.29-6.16H127V69.06a86.45,86.45,0,0,0-9.75-.5c-9.66,0-16.25,5.89-16.25,16.72V96H90v12h11v33H60.66c-2.56,0-4.66-3.37-4.66-5.92V60.53C56,58,58.11,57,60.66,57h74.55c2.55,0,3.79,1,3.79,3.53v74.55Z" transform="translate(-8.52 -9.32)"/></g></svg>