<svg id="fail" xmlns="http://www.w3.org/2000/svg" viewBox="0 0 180.43 180.43"><title>fail</title><path d="M49,118V82H71v6H58v8H68v7H58v15H49Z" transform="translate(-8.57 -8.81)"/><path d="M98.68,118l-2-7h-13l-2,7H72.22L84.83,82H95.58l12.56,36H98.68ZM85.87,105h8.58L90.16,92.08Z" transform="translate(-8.57 -8.81)"/><path d="M111,118V82h8v36h-8Z" transform="translate(-8.57 -8.81)"/><path d="M126,82h9v29h11v7H126V82Z" transform="translate(-8.57 -8.81)"/><path d="M98.78,189.24A90.22,90.22,0,0,1,35,35.23,90.22,90.22,0,1,1,162.58,162.81,89.63,89.63,0,0,1,98.78,189.24Zm0-171.33A81.11,81.11,0,0,0,41.43,156.38,81.11,81.11,0,1,0,156.14,41.66,80.58,80.58,0,0,0,98.78,17.91Z" transform="translate(-8.57 -8.81)"/></svg>