<svg id="info" xmlns="http://www.w3.org/2000/svg" viewBox="0 0 183.45 183.45"><title>info</title><path d="M98.61,190.85a91.73,91.73,0,1,1,91.73-91.73A91.83,91.83,0,0,1,98.61,190.85Zm0-179.45a87.73,87.73,0,1,0,87.73,87.73A87.83,87.83,0,0,0,98.61,11.39Z" transform="translate(-6.88 -7.39)"/><path d="M102.39,84.2a5.15,5.15,0,0,1,4,1.92,7.76,7.76,0,0,1,1.66,5.24A44.06,44.06,0,0,1,107,99.85l-5.44,27.45a15.15,15.15,0,0,0-.27,3.18q0,3.32,1.33,3.32t3.58-1.79a36.18,36.18,0,0,0,3.65-3.25q1.39-1.46,2.06-2.12a3.38,3.38,0,0,1,1.19,1.26,4,4,0,0,1,.93,1.79q-1.59,3.18-8.36,8.62t-11.54,5.44A5.28,5.28,0,0,1,90,141.82a8,8,0,0,1-1.66-5.37,47.07,47.07,0,0,1,1.06-8.36l5.17-26.39a24.8,24.8,0,0,0,.53-4.24q0-3.18-1.33-3.18-1.59,0-4.38,2.52a44.12,44.12,0,0,0-4.11,4.11,3.43,3.43,0,0,1-1.19-1.33,4.25,4.25,0,0,1-.93-1.86q1.46-3,8-8.29T102.39,84.2Zm4-29.71a5.83,5.83,0,0,1,4.44,1.92,6.65,6.65,0,0,1,1.79,4.71A9.88,9.88,0,0,1,110,67.89a8,8,0,0,1-6.17,2.92,5.46,5.46,0,0,1-4.38-2.06,7.48,7.48,0,0,1-1.72-5,9.38,9.38,0,0,1,2.52-6.5A7.93,7.93,0,0,1,106.37,54.49Z" transform="translate(-6.88 -7.39)"/></svg>