<svg id="pass" xmlns="http://www.w3.org/2000/svg" viewBox="0 0 180.13 180.13"><title>pass</title><path d="M65.89,92.17a11.43,11.43,0,0,1-2.63,7.07A9.71,9.71,0,0,1,59.11,102a17.53,17.53,0,0,1-6.53,1H49v14H39V81H52.58c4.2,0,7.46,1.12,9.8,3.29A10.39,10.39,0,0,1,65.89,92.17ZM49,97h3.58a4.41,4.41,0,0,0,3.17-1.44,4.58,4.58,0,0,0,1.16-3.25,5.58,5.58,0,0,0-1.19-3.63A4.56,4.56,0,0,0,52.58,87H49V97Z" transform="translate(-8.87 -9.04)"/><path d="M90,117l-2-6H75l-2,6H63.61L76.2,81H86.93l12.54,36H90Zm-12.8-14H85.8L81.52,90.1Z" transform="translate(-8.87 -9.04)"/><path d="M113.8,87.52a4.1,4.1,0,0,0-2.71.88A3.1,3.1,0,0,0,110,90.93a3.64,3.64,0,0,0,1,2.66,6.4,6.4,0,0,0,2.55,1.55q1.57,0.54,3.51,1a39.66,39.66,0,0,1,3.84,1.19,16.91,16.91,0,0,1,3.48,1.73A7.59,7.59,0,0,1,127,102a9.67,9.67,0,0,1,1,4.51,10.11,10.11,0,0,1-3.74,7.87q-3.74,3.28-9.85,3.28c-4.08,0-7.36-.16-9.86-2.12a9.26,9.26,0,0,1-3.74-7.54h9.39a4.92,4.92,0,0,0,4.44,3.51,4.49,4.49,0,0,0,3-1.42,3.79,3.79,0,0,0,1.08-2.76,3.67,3.67,0,0,0-1-2.63,6.92,6.92,0,0,0-2.55-1.6c-1-.38-2.22-0.76-3.51-1.08a35.35,35.35,0,0,1-3.84-1.23,18.78,18.78,0,0,1-3.48-1.73,7.37,7.37,0,0,1-2.55-2.89,9.55,9.55,0,0,1-1-4.46,9.89,9.89,0,0,1,3.77-8.1,14.82,14.82,0,0,1,9.62-3c3.9,0,7.06.09,9.47,1.86A9.65,9.65,0,0,1,127.37,90h-9.6a14.16,14.16,0,0,0-1.26-2.22C115.8,87.08,114.9,87.52,113.8,87.52Z" transform="translate(-8.87 -9.04)"/><path d="M145.44,87.52a4.1,4.1,0,0,0-2.71.88,3.1,3.1,0,0,0-1.06,2.53,3.64,3.64,0,0,0,1,2.66,6.4,6.4,0,0,0,2.55,1.55q1.57,0.54,3.51,1a39.66,39.66,0,0,1,3.84,1.19A16.91,16.91,0,0,1,156,99.08,7.59,7.59,0,0,1,158.6,102a9.67,9.67,0,0,1,1,4.51,10.11,10.11,0,0,1-3.74,7.87q-3.74,3.28-9.85,3.28c-4.08,0-7.36-.16-9.86-2.12a9.26,9.26,0,0,1-3.74-7.54h9.39a4.92,4.92,0,0,0,4.44,3.51,4.49,4.49,0,0,0,3-1.42,3.79,3.79,0,0,0,1.08-2.76,3.67,3.67,0,0,0-1-2.63,6.92,6.92,0,0,0-2.55-1.6c-1-.38-2.22-0.76-3.51-1.08a35.35,35.35,0,0,1-3.84-1.23,18.78,18.78,0,0,1-3.48-1.73,7.37,7.37,0,0,1-2.55-2.89,9.55,9.55,0,0,1-1-4.46,9.89,9.89,0,0,1,3.77-8.1,14.82,14.82,0,0,1,9.62-3c3.9,0,7.06.09,9.47,1.86A9.65,9.65,0,0,1,159,90h-9.6a14.16,14.16,0,0,0-1.26-2.22C147.45,87.08,146.55,87.52,145.44,87.52Z" transform="translate(-8.87 -9.04)"/><path d="M98.94,189.17A90.06,90.06,0,0,1,35.25,35.42,90.06,90.06,0,1,1,162.62,162.79,89.47,89.47,0,0,1,98.94,189.17Zm0-171A81,81,0,0,0,41.68,156.37,81,81,0,1,0,156.2,41.85,80.45,80.45,0,0,0,98.94,18.13Z" transform="translate(-8.87 -9.04)"/></svg>