<svg id="twitter" xmlns="http://www.w3.org/2000/svg" viewBox="0 0 180.6 180.6"><title>twitter</title><g id="Twitter-2" data-name="Twitter"><path id="Twitter-3" data-name="Twitter" d="M138.11,64.76a34.63,34.63,0,0,1-11.17,4.37,17.34,17.34,0,0,0-12.83-5.69,17.81,17.81,0,0,0-17.57,18A18.39,18.39,0,0,0,97,85.57,49.5,49.5,0,0,1,60.74,66.73a18.36,18.36,0,0,0-2.38,9.07,18.05,18.05,0,0,0,7.71,15C63.2,90.72,61,89.9,58,88.55v0.22a18,18,0,0,0,14.22,17.68,16.38,16.38,0,0,1-4.58.63,16.81,16.81,0,0,1-3.28-.32,17.66,17.66,0,0,0,16.44,12.51A34.7,34.7,0,0,1,59,127a35.13,35.13,0,0,1-4.19-.25,49,49,0,0,0,27,8.09c32.34,0,50-27.47,50-51.29,0-.78,0-1.57,0-2.34a36.09,36.09,0,0,0,8.77-9.33,34.35,34.35,0,0,1-10.1,2.84A18,18,0,0,0,138.11,64.76Z" transform="translate(-8.63 -9.32)"/><path d="M98.93,189.93a90.3,90.3,0,1,1,90.3-90.3A90.4,90.4,0,0,1,98.93,189.93Zm0-173.74a83.44,83.44,0,1,0,83.44,83.44A83.53,83.53,0,0,0,98.93,16.19Z" transform="translate(-8.63 -9.32)"/></g></svg>